<?xml version="1.0" standalone="no"?>
<!DOCTYPE svg PUBLIC "-//W3C//DTD SVG 20010904//EN"
 "http://www.w3.org/TR/2001/REC-SVG-20010904/DTD/svg10.dtd">
<svg version="1.0" xmlns="http://www.w3.org/2000/svg" viewBox="0 0 900.000000 720.000000"
 preserveAspectRatio="xMidYMid meet">

<g transform="translate(0.000000,720.000000) scale(0.100000,-0.100000)"
fill="#000000" stroke="none">
<path d="M3208 7083 c7 -3 16 -2 19 1 4 3 -2 6 -13 5 -11 0 -14 -3 -6 -6z"/>
<path d="M3280 7086 c0 -2 7 -6 15 -10 8 -3 15 -1 15 4 0 6 -7 10 -15 10 -8 0
-15 -2 -15 -4z"/>
<path d="M5600 7075 c-138 -18 -302 -55 -315 -70 -5 -7 -28 -22 -50 -34 -36
-20 -37 -21 -10 -16 333 71 493 88 675 71 36 -3 130 -9 210 -12 80 -3 162 -7
182 -7 41 -2 58 16 21 21 -13 2 -23 7 -23 12 0 10 41 5 95 -10 17 -5 49 -14
72 -20 24 -6 51 -19 60 -29 19 -19 137 -61 173 -61 41 0 18 19 -61 50 -173 67
-319 95 -491 95 -47 0 -85 2 -83 5 2 3 -20 6 -48 7 -29 1 -108 4 -177 7 -79 3
-164 0 -230 -9z"/>
<path d="M3358 7073 c6 -2 18 -2 25 0 6 3 1 5 -13 5 -14 0 -19 -2 -12 -5z"/>
<path d="M3000 7045 c-19 -7 -51 -14 -70 -14 -20 -1 -40 -5 -46 -11 -5 -5 -27
-14 -49 -20 -40 -10 -40 -10 10 -4 28 2 94 7 148 11 72 4 97 10 97 20 0 18 74
17 103 -1 12 -7 50 -16 84 -19 35 -3 82 -14 106 -26 37 -18 57 -20 160 -17 65
2 117 -1 117 -6 0 -5 8 -4 19 1 10 6 20 8 22 6 3 -2 25 -6 51 -9 25 -3 52 -8
60 -11 8 -3 68 -17 134 -30 112 -22 153 -23 123 -4 -22 14 -178 61 -212 64
-18 1 -52 7 -77 13 -25 6 -74 13 -110 17 -36 4 -100 15 -142 25 -43 9 -78 14
-78 9 0 -5 -7 -9 -16 -9 -8 0 -12 5 -9 10 3 6 -3 10 -14 10 -10 0 -21 -5 -23
-11 -4 -12 -58 -1 -58 12 0 5 -5 9 -11 9 -5 0 -8 -4 -5 -8 5 -8 -38 -7 -152 4
-38 4 -67 2 -75 -4 -8 -7 -18 -7 -27 -2 -18 12 -17 12 -60 -5z"/>
<path d="M2570 6998 c-19 -5 -39 -14 -45 -20 -7 -8 -4 -9 10 -3 11 4 40 13 65
20 25 7 36 13 25 13 -11 0 -36 -4 -55 -10z"/>
<path d="M6033 6968 c-13 -6 -23 -15 -23 -20 0 -16 37 -8 55 12 21 23 6 26
-32 8z"/>
<path d="M5826 6905 c4 -16 2 -25 -4 -23 -14 4 -92 -44 -92 -56 0 -5 -7 -18
-16 -28 -12 -13 1 -9 46 13 119 57 130 54 200 -60 30 -50 40 -78 40 -109 0
-36 3 -42 25 -48 14 -3 34 -4 45 -1 11 3 23 1 26 -4 3 -5 9 -7 14 -4 5 3 15
-3 22 -14 10 -16 15 -18 27 -8 8 7 12 8 9 2 -3 -5 -13 -34 -21 -63 l-16 -52
40 -27 c22 -14 41 -24 43 -22 5 6 26 119 29 157 2 27 -1 32 -19 32 -11 0 -29
9 -39 20 -10 11 -41 31 -69 44 -112 52 -186 137 -186 214 0 26 -3 29 -26 24
-17 -3 -36 3 -55 17 l-30 22 7 -26z"/>
<path d="M2399 6907 c-12 -9 -14 -15 -5 -23 14 -13 81 4 81 20 0 14 -58 16
-76 3z"/>
<path d="M5555 6909 c-105 -19 -196 -41 -191 -46 2 -3 26 0 53 7 61 15 98 3
105 -35 4 -17 1 -28 -8 -32 -8 -3 -14 -10 -14 -17 0 -6 -22 -34 -50 -61 -55
-56 -61 -71 -27 -77 20 -4 23 -1 19 19 -6 32 6 62 17 44 7 -10 26 2 77 50 97
90 114 112 107 137 -6 24 -12 24 -88 11z m5 -104 c-47 -47 -89 -85 -95 -85 -9
1 165 170 175 170 2 0 -33 -38 -80 -85z"/>
<path d="M2891 6894 c-110 -20 -108 -24 4 -16 129 9 239 6 243 -7 2 -5 9 -8
16 -5 8 3 20 -2 29 -10 9 -9 33 -16 55 -16 32 0 41 4 51 26 6 14 9 30 6 35 -9
14 -319 8 -404 -7z"/>
<path d="M4880 6881 c-41 -15 -124 -49 -185 -74 -60 -26 -116 -47 -122 -47 -7
0 -13 -7 -13 -16 0 -23 27 -15 184 55 72 32 141 61 154 65 12 4 22 12 22 17 0
5 8 9 18 9 9 0 24 5 32 10 29 19 -12 10 -90 -19z"/>
<path d="M6150 6901 c0 -15 69 -53 81 -45 7 4 10 3 7 -2 -4 -5 15 -9 40 -9 68
-1 139 -38 147 -77 6 -27 10 -29 36 -24 22 4 27 2 22 -9 -3 -8 -13 -15 -23
-15 -22 0 -34 -26 -16 -33 25 -10 61 17 61 45 1 14 7 34 15 43 22 27 1 47 -76
73 -70 24 -241 62 -275 62 -10 0 -19 -4 -19 -9z"/>
<path d="M2346 6881 c-3 -5 1 -14 9 -21 13 -10 15 -9 15 9 0 21 -14 28 -24 12z"/>
<path d="M5715 6881 c-6 -11 9 -23 19 -14 9 9 7 23 -3 23 -6 0 -12 -4 -16 -9z"/>
<path d="M6130 6866 c0 -12 71 -46 97 -46 6 0 16 -7 23 -15 7 -8 17 -12 22 -9
8 5 -124 84 -139 84 -2 0 -3 -6 -3 -14z"/>
<path d="M2748 6863 c6 -2 18 -2 25 0 6 3 1 5 -13 5 -14 0 -19 -2 -12 -5z"/>
<path d="M4319 6836 c6 -7 8 -15 5 -18 -4 -5 194 -88 209 -88 3 0 4 8 3 18 -2
12 -35 29 -115 59 -62 23 -107 36 -102 29z m86 -36 c3 -5 1 -10 -4 -10 -6 0
-11 5 -11 10 0 6 2 10 4 10 3 0 8 -4 11 -10z"/>
<path d="M3754 6815 c-17 -13 -17 -14 -2 -15 9 0 20 5 23 11 11 17 0 20 -21 4z"/>
<path d="M3806 6815 c-3 -9 0 -15 10 -15 22 0 134 -59 134 -70 0 -12 61 -82
67 -77 2 2 -4 18 -13 36 -9 18 -14 34 -12 36 10 10 52 -23 55 -43 2 -13 -1
-21 -5 -18 -5 3 -9 -8 -9 -24 0 -18 4 -27 11 -22 6 3 20 6 30 7 14 0 24 14 38
54 10 30 15 58 11 61 -19 16 -265 90 -299 90 -7 0 -14 -7 -18 -15z"/>
<path d="M6625 6810 c-10 -11 -26 -20 -37 -20 -26 0 -23 -26 5 -35 66 -23 105
0 81 47 -17 33 -25 35 -49 8z"/>
<path d="M3191 6790 c12 -34 23 -43 58 -46 14 -2 27 -8 29 -14 2 -5 15 -10 28
-10 14 0 23 4 20 9 -4 5 0 12 6 14 8 4 4 8 -9 12 -17 6 -21 13 -17 29 5 21 2
22 -51 24 -30 0 -60 4 -65 7 -5 3 -5 -7 1 -25z m89 -21 c0 -11 -4 -17 -10 -14
-5 3 -10 13 -10 21 0 8 5 14 10 14 6 0 10 -9 10 -21z"/>
<path d="M3150 6788 c-12 -22 -12 -22 6 -6 10 10 15 20 12 24 -4 3 -12 -5 -18
-18z"/>
<path d="M3715 6789 c-10 -15 3 -25 16 -12 7 7 7 13 1 17 -6 3 -14 1 -17 -5z"/>
<path d="M2502 6783 c-6 -2 -10 -9 -7 -14 4 -5 0 -6 -8 -3 -8 3 -30 -1 -50 -9
-46 -20 -178 -110 -202 -139 -11 -13 -16 -20 -11 -16 16 13 36 -13 36 -47 0
-68 10 -90 54 -118 36 -23 63 -33 98 -36 4 -1 15 -9 25 -20 10 -10 30 -26 46
-36 26 -17 27 -17 27 1 0 11 9 34 20 52 24 39 27 38 -105 47 -61 3 -102 10
-107 18 -17 27 -20 97 -6 139 12 35 26 50 74 83 32 21 77 48 98 60 50 26 64
57 18 38z"/>
<path d="M3082 6757 c-20 -21 -52 -119 -52 -159 0 -23 33 -41 48 -26 7 7 12
37 12 68 1 30 5 74 9 98 5 23 7 42 6 42 -1 0 -11 -10 -23 -23z"/>
<path d="M3660 6756 c0 -2 7 -7 16 -10 8 -3 12 -2 9 4 -6 10 -25 14 -25 6z"/>
<path d="M6330 6745 c0 -10 88 -31 96 -23 1 2 -20 10 -47 19 -36 11 -49 12
-49 4z"/>
<path d="M2130 6729 c0 -5 5 -7 10 -4 6 3 10 8 10 11 0 2 -4 4 -10 4 -5 0 -10
-5 -10 -11z"/>
<path d="M2637 6717 c-9 -23 5 -67 24 -81 10 -7 16 -17 11 -22 -4 -5 3 0 16
10 29 25 28 29 -12 52 -24 13 -32 24 -27 32 6 10 17 5 42 -19 26 -24 37 -29
50 -21 27 17 59 -25 61 -81 1 -26 7 -47 13 -47 5 0 3 -5 -5 -10 -11 -7 6 -10
55 -8 54 2 70 6 70 18 0 8 -7 15 -15 15 -8 0 -19 3 -25 6 -5 3 -23 6 -39 7
-35 2 -37 4 -27 20 10 17 121 -5 121 -24 0 -8 12 -17 26 -20 15 -4 42 -22 61
-40 40 -39 47 -42 40 -14 -3 11 -1 20 4 20 23 0 4 21 -43 48 -32 18 -81 34
-125 41 -67 10 -76 15 -112 54 -28 31 -55 48 -94 60 -65 20 -64 20 -70 4z"/>
<path d="M3472 6667 c-14 -15 -17 -24 -10 -24 32 -1 72 -13 87 -26 9 -8 24
-17 34 -20 10 -4 15 -11 12 -17 -4 -6 5 -10 20 -10 14 0 57 -7 96 -16 56 -13
73 -13 85 -3 18 15 10 23 -41 39 -22 7 -79 32 -127 56 -100 50 -126 53 -156
21z"/>
<path d="M4395 6681 c7 -11 0 -13 -36 -9 l-44 6 31 -15 c23 -11 43 -13 70 -8
28 6 33 10 19 13 -11 2 -26 9 -34 16 -12 9 -13 8 -6 -3z"/>
<path d="M4763 6678 c-28 -14 -30 -27 -4 -25 11 0 18 4 15 8 -2 4 4 12 13 18
24 14 4 13 -24 -1z"/>
<path d="M1939 6643 c-48 -53 -73 -83 -67 -83 3 0 28 27 57 60 58 67 64 81 10
23z"/>
<path d="M4658 6663 c-23 -6 -23 -8 11 -75 27 -52 30 -56 47 -43 18 14 18 14
-2 15 -12 0 -25 10 -32 24 -11 25 -6 66 9 66 5 0 9 5 9 10 0 10 -12 11 -42 3z"/>
<path d="M5593 6658 c-16 -19 -43 -122 -43 -160 0 -83 155 -126 266 -74 28 13
58 33 66 45 8 11 17 18 21 15 3 -3 5 8 5 25 -1 22 -4 29 -12 21 -17 -17 -36
-11 -36 13 -1 20 -2 21 -14 5 -18 -25 -46 -23 -46 3 0 11 -5 17 -10 14 -6 -4
-8 -11 -5 -16 24 -38 -52 -76 -126 -64 -45 8 -58 21 -66 70 -5 32 -2 40 21 59
27 21 27 22 8 39 -15 14 -21 15 -29 5z"/>
<path d="M6794 6646 c-13 -21 -14 -29 -4 -41 7 -8 19 -15 26 -15 8 0 34 -19
59 -43 50 -48 58 -84 29 -126 -13 -17 -14 -25 -5 -34 9 -9 15 -8 22 6 15 26
67 77 79 77 5 0 10 9 10 19 0 20 -111 126 -169 163 l-30 19 -17 -25z"/>
<path d="M3905 6650 c-3 -5 -1 -10 4 -10 6 0 11 5 11 10 0 6 -2 10 -4 10 -3 0
-8 -4 -11 -10z"/>
<path d="M5480 6656 c0 -2 7 -7 16 -10 8 -3 12 -2 9 4 -6 10 -25 14 -25 6z"/>
<path d="M5720 6635 c-6 -8 -9 -18 -6 -24 3 -5 -2 -12 -11 -15 -11 -5 -13 -10
-6 -17 19 -19 56 5 59 39 4 35 -14 44 -36 17z"/>
<path d="M4732 6620 c5 -22 37 -25 35 -3 0 11 -9 19 -19 19 -11 0 -17 -6 -16
-16z"/>
<path d="M5128 6635 c-3 -3 -55 -7 -116 -8 -79 -1 -115 -6 -124 -16 -11 -11
14 -13 162 -7 96 3 221 6 278 6 84 0 102 3 102 15 0 13 -23 15 -148 15 -82 0
-151 -2 -154 -5z"/>
<path d="M3926 6615 c4 -8 10 -12 15 -9 11 6 2 24 -11 24 -5 0 -7 -7 -4 -15z"/>
<path d="M3967 6624 c-9 -9 2 -24 17 -24 7 0 13 7 13 15 0 15 -18 20 -30 9z"/>
<path d="M4077 6613 c-34 -5 -31 -24 5 -34 18 -5 30 -2 41 11 14 16 14 19 0
24 -8 3 -15 5 -16 5 -1 -1 -15 -4 -30 -6z"/>
<path d="M5500 6616 c0 -2 7 -7 16 -10 8 -3 12 -2 9 4 -6 10 -25 14 -25 6z"/>
<path d="M3387 6589 c-10 -11 -16 -23 -13 -26 8 -8 38 25 34 37 -2 6 -11 1
-21 -11z"/>
<path d="M5810 6592 c0 -5 7 -9 15 -9 8 0 12 4 9 9 -3 4 -9 8 -15 8 -5 0 -9
-4 -9 -8z"/>
<path d="M3951 6559 c9 -17 13 -19 19 -8 11 16 4 29 -16 29 -12 0 -13 -4 -3
-21z"/>
<path d="M3440 6560 c0 -23 22 -51 38 -49 9 2 45 -1 80 -5 52 -7 66 -5 81 8
16 15 25 15 67 5 27 -6 55 -18 63 -25 12 -11 19 -10 41 1 15 8 31 11 35 7 5
-4 5 -1 1 6 -5 7 -15 11 -23 8 -10 -4 -13 -2 -10 6 3 9 -9 13 -42 14 -97 3
-308 21 -319 28 -7 4 -12 2 -12 -4z"/>
<path d="M4543 6558 c-4 -7 -8 -26 -9 -41 -2 -27 -1 -27 17 -11 11 9 19 28 19
41 0 25 -14 31 -27 11z"/>
<path d="M5437 6552 c-20 -19 -63 -21 -209 -9 l-98 9 0 -30 c0 -24 6 -32 28
-39 39 -14 243 -16 289 -4 52 14 81 44 63 66 -7 8 -16 12 -22 9 -5 -3 -15 -1
-22 5 -9 7 -17 6 -29 -7z"/>
<path d="M3340 6547 c0 -8 6 -20 14 -26 12 -10 13 -8 9 9 -7 25 -23 37 -23 17z"/>
<path d="M4466 6527 c-17 -17 -22 -31 -19 -54 6 -35 35 -50 54 -27 8 10 8 14
0 14 -14 0 -15 57 -1 65 6 3 10 10 10 16 0 16 -20 10 -44 -14z"/>
<path d="M5065 6540 c3 -5 10 -10 16 -10 5 0 9 5 9 10 0 6 -7 10 -16 10 -8 0
-12 -4 -9 -10z"/>
<path d="M1840 6533 c0 -5 -23 -32 -50 -61 -28 -30 -51 -58 -51 -63 -1 -5 -2
-12 -3 -16 0 -5 -13 -24 -28 -43 -14 -19 -38 -57 -53 -85 -15 -27 -33 -57 -40
-65 -6 -8 -29 -55 -51 -105 -21 -49 -41 -92 -45 -95 -9 -7 -67 -162 -73 -194
-6 -31 -34 -134 -43 -156 -8 -18 -48 -214 -67 -325 -28 -165 -39 -411 -26
-602 6 -98 16 -214 22 -258 6 -44 11 -102 10 -128 -1 -48 0 -49 26 -42 33 8
43 23 37 55 -31 168 -40 293 -40 590 0 286 2 327 23 445 49 273 88 416 168
618 71 177 211 428 288 515 11 12 14 22 8 22 -7 0 -12 -3 -12 -7z"/>
<path d="M2340 6531 c0 -6 4 -13 10 -16 6 -3 7 1 4 9 -7 18 -14 21 -14 7z"/>
<path d="M3317 6520 c3 -11 9 -20 14 -20 11 0 11 3 3 24 -9 23 -23 20 -17 -4z"/>
<path d="M6266 6508 c-10 -38 -6 -45 9 -18 17 29 18 40 6 40 -5 0 -11 -10 -15
-22z"/>
<path d="M6580 6505 c-36 -13 -90 -24 -122 -24 -47 -1 -59 -5 -68 -21 -7 -14
-7 -20 0 -20 5 0 10 -7 10 -15 0 -8 9 -24 20 -35 l20 -20 38 24 c20 13 62 36
91 51 39 19 50 29 40 35 -11 7 -9 10 6 16 21 8 52 35 38 33 -4 -1 -37 -12 -73
-24z"/>
<path d="M4759 6500 l-24 -19 38 -1 c40 0 40 0 31 24 -8 21 -17 20 -45 -4z"/>
<path d="M3967 6492 c6 -26 73 -38 108 -20 22 12 20 13 -31 14 -30 1 -60 7
-68 13 -12 10 -13 9 -9 -7z"/>
<path d="M4155 6490 c-10 -11 -24 -20 -32 -20 -7 0 -13 -4 -13 -10 0 -29 79
13 80 43 0 13 -17 7 -35 -13z"/>
<path d="M4560 6495 c0 -9 6 -12 15 -9 8 4 15 10 15 15 0 5 -7 9 -15 9 -8 0
-15 -7 -15 -15z"/>
<path d="M6680 6478 c0 -4 21 -9 48 -13 26 -3 61 -8 79 -11 17 -2 34 0 38 6 3
5 0 10 -7 11 -7 0 -46 4 -85 8 -40 4 -73 4 -73 -1z"/>
<path d="M4657 6459 c4 -13 8 -18 11 -10 2 7 -1 18 -6 23 -8 8 -9 4 -5 -13z"/>
<path d="M7075 6471 l-30 -7 43 -23 c24 -12 46 -20 48 -18 3 3 2 16 -2 31 -6
27 -10 28 -59 17z"/>
<path d="M6985 6450 c-18 -8 -17 -9 8 -9 15 -1 27 4 27 9 0 12 -8 12 -35 0z"/>
<path d="M6812 6394 l-23 -35 30 22 c17 13 31 29 31 36 0 23 -14 14 -38 -23z"/>
<path d="M4615 6410 c-3 -5 -2 -10 4 -10 5 0 13 5 16 10 3 6 2 10 -4 10 -5 0
-13 -4 -16 -10z"/>
<path d="M2905 6402 c-22 -5 -44 -30 -45 -50 0 -8 6 -12 13 -9 6 2 11 12 11
21 -3 30 20 11 48 -40 15 -27 28 -45 28 -41 0 5 -5 17 -10 28 -21 38 -1 18 22
-23 32 -55 41 -81 27 -72 -7 4 -10 1 -7 -7 3 -8 12 -13 21 -13 9 1 14 -2 11
-7 -14 -23 63 7 99 39 27 24 20 34 -20 32 -21 -1 -43 -2 -49 -1 -6 1 -18 27
-27 59 -9 33 -22 63 -29 69 -17 13 -67 21 -93 15z"/>
<path d="M3688 6398 c6 -6 18 -8 28 -6 14 3 12 5 -9 10 -19 3 -25 2 -19 -4z"/>
<path d="M4497 6404 c-11 -12 3 -24 29 -24 16 0 24 5 22 13 -5 13 -40 22 -51
11z"/>
<path d="M6333 6373 c2 -20 7 -38 13 -40 5 -2 9 9 8 24 -1 16 -3 34 -3 41 -1
6 -5 12 -10 12 -6 0 -9 -17 -8 -37z"/>
<path d="M4931 6366 c-22 -23 -23 -27 -9 -48 10 -15 13 -31 7 -45 l-8 -22 37
21 37 20 -30 -26 c-16 -14 -37 -29 -45 -32 -8 -4 -40 -34 -70 -67 l-55 -62 68
62 c37 35 85 73 107 85 22 13 38 28 35 35 -2 7 1 26 7 43 12 35 6 46 -32 55
-19 5 -31 0 -49 -19z"/>
<path d="M6390 6380 c0 -6 -4 -9 -9 -6 -5 4 -7 -11 -4 -34 l6 -40 -57 -26 -56
-26 20 -25 c19 -25 19 -25 0 -62 -19 -38 -90 -129 -90 -116 0 4 -9 -3 -19 -16
-13 -17 -16 -29 -10 -41 6 -11 5 -18 -4 -21 -8 -4 -7 -6 3 -6 10 -1 24 18 35
46 12 28 57 88 107 145 49 54 88 106 89 115 4 82 3 115 -3 119 -4 3 -8 0 -8
-6z"/>
<path d="M6970 6375 c0 -8 11 -17 25 -21 14 -3 25 -10 25 -16 0 -5 5 -6 11 -2
7 4 1 15 -17 30 -34 27 -44 29 -44 9z"/>
<path d="M2410 6354 c0 -4 8 -13 18 -21 16 -14 16 -14 0 -9 -29 9 -21 -23 8
-35 28 -10 64 -4 64 11 0 5 -17 21 -37 35 -38 25 -53 31 -53 19z m70 -44 c0
-5 -7 -7 -15 -4 -8 4 -15 8 -15 10 0 2 7 4 15 4 8 0 15 -4 15 -10z"/>
<path d="M6591 6321 l-43 -18 49 -31 c28 -18 57 -32 66 -32 9 0 21 -8 26 -17
6 -10 11 -13 11 -6 0 6 -4 14 -10 18 -6 4 -6 15 0 31 14 36 12 44 -9 44 -10 0
-21 7 -25 15 -6 18 -9 18 -65 -4z"/>
<path d="M2859 6303 c-7 -10 -9 -15 -5 -11 5 4 16 2 25 -5 14 -10 14 -10 4 4
-7 9 -10 19 -6 22 3 4 4 7 1 7 -3 0 -12 -8 -19 -17z"/>
<path d="M2905 6290 c9 -16 18 -30 21 -30 2 0 -2 14 -11 30 -9 17 -18 30 -21
30 -2 0 2 -13 11 -30z"/>
<path d="M7142 6268 c-24 -24 -13 -57 30 -88 40 -29 68 -38 68 -22 0 14 -64
115 -75 119 -6 2 -16 -2 -23 -9z"/>
<path d="M4695 6259 c-11 -16 -3 -17 40 -3 l40 12 -37 1 c-20 1 -40 -4 -43
-10z"/>
<path d="M5046 6254 c-5 -14 -4 -15 9 -4 17 14 19 20 6 20 -5 0 -12 -7 -15
-16z"/>
<path d="M7337 6223 c10 -21 25 -50 35 -65 10 -14 18 -30 18 -35 0 -4 8 -18
18 -30 12 -16 21 -20 32 -13 13 8 12 13 -4 42 -30 51 -97 138 -107 138 -5 0
-1 -17 8 -37z"/>
<path d="M2931 6245 c-1 -20 26 -58 33 -46 4 6 3 11 -2 11 -5 0 -14 10 -20 23
-6 12 -11 18 -11 12z"/>
<path d="M3860 6211 c0 -36 3 -40 30 -46 16 -4 34 -4 40 0 29 18 -10 85 -50
85 -17 0 -20 -7 -20 -39z"/>
<path d="M4645 6239 c-4 -6 -5 -12 -2 -15 2 -3 7 2 10 11 7 17 1 20 -8 4z"/>
<path d="M6420 6222 c0 -8 -23 -41 -52 -73 -41 -48 -49 -62 -38 -69 18 -11 43
8 36 27 -3 8 -2 12 3 9 4 -3 29 15 55 39 26 25 40 45 32 45 -8 0 -20 8 -25 18
-7 11 -11 12 -11 4z"/>
<path d="M7063 6203 c-7 -2 -13 -17 -12 -31 0 -27 0 -27 11 -4 6 12 15 22 20
22 4 0 8 5 8 10 0 11 -7 12 -27 3z"/>
<path d="M3350 6190 c0 -5 5 -10 11 -10 5 0 7 5 4 10 -3 6 -8 10 -11 10 -2 0
-4 -4 -4 -10z"/>
<path d="M3822 6180 c-15 -25 -16 -43 -1 -38 7 2 13 16 15 31 3 32 2 33 -14 7z"/>
<path d="M4840 6185 c-7 -8 -17 -12 -24 -8 -6 3 -8 3 -4 -2 4 -4 2 -15 -4 -24
-7 -9 2 -3 20 13 18 17 32 31 32 33 0 7 -8 2 -20 -12z"/>
<path d="M2546 6172 c-3 -5 6 -25 19 -45 14 -20 25 -41 25 -46 0 -6 6 -8 13
-5 45 17 153 -128 145 -195 -3 -22 1 -26 22 -23 33 3 59 35 53 66 -3 13 -18
36 -34 50 -17 15 -34 45 -41 71 -11 40 -15 45 -41 45 -19 0 -49 16 -87 45 -62
48 -66 50 -74 37z"/>
<path d="M2940 6169 c0 -5 -4 -7 -10 -4 -14 9 -12 -1 3 -13 10 -8 13 -6 14 9
1 10 0 19 -3 19 -2 0 -4 -5 -4 -11z"/>
<path d="M3012 6149 c11 -33 23 -37 31 -10 3 13 -3 22 -19 29 -22 11 -22 10
-12 -19z"/>
<path d="M3380 6175 c0 -2 10 -10 23 -16 20 -11 21 -11 8 4 -13 16 -31 23 -31
12z"/>
<path d="M4905 6138 l-40 -43 43 40 c39 36 47 45 39 45 -2 0 -21 -19 -42 -42z"/>
<path d="M6461 6138 c-23 -28 -23 -29 -3 -17 19 12 37 38 30 44 -2 1 -14 -11
-27 -27z"/>
<path d="M3910 6140 c20 -13 53 -13 45 0 -3 6 -18 10 -33 10 -21 0 -24 -2 -12
-10z"/>
<path d="M7050 6131 c0 -6 4 -13 10 -16 6 -3 7 1 4 9 -7 18 -14 21 -14 7z"/>
<path d="M2506 6117 c3 -10 9 -15 12 -12 3 3 0 11 -7 18 -10 9 -11 8 -5 -6z"/>
<path d="M3815 6120 c3 -5 8 -10 11 -10 2 0 4 5 4 10 0 6 -5 10 -11 10 -5 0
-7 -4 -4 -10z"/>
<path d="M4764 6096 c-6 -7 -19 -36 -29 -66 -16 -47 -16 -62 -6 -114 16 -84
19 -136 8 -136 -6 0 -7 -3 -4 -7 4 -3 2 -13 -4 -22 -6 -9 8 5 32 32 42 45 77
67 48 30 -13 -16 -12 -17 4 -4 24 19 21 44 -8 79 -21 26 -25 40 -27 124 -2 70
-6 93 -14 84z"/>
<path d="M3830 6079 c0 -4 14 -10 30 -14 17 -4 30 -11 30 -16 0 -5 9 -9 20 -9
11 0 20 5 20 12 0 6 -3 8 -7 5 -3 -4 -13 -1 -22 7 -18 15 -71 27 -71 15z"/>
<path d="M7250 6071 c-18 -34 -30 -72 -21 -67 23 15 81 -104 81 -167 0 -31 2
-33 29 -29 16 2 32 10 35 18 6 15 -44 165 -75 227 -22 42 -33 46 -49 18z"/>
<path d="M1855 6070 c-3 -5 -15 -10 -25 -10 -33 0 -89 -110 -141 -275 -26 -82
-25 -105 4 -105 12 0 28 4 35 9 18 11 31 73 32 148 0 78 29 156 78 206 20 20
33 37 30 37 -4 0 -10 -4 -13 -10z"/>
<path d="M6290 6060 c0 -5 5 -10 10 -10 6 0 10 5 10 10 0 6 -4 10 -10 10 -5 0
-10 -4 -10 -10z"/>
<path d="M4420 6033 c-13 -35 -76 -69 -119 -65 -14 2 -44 -4 -66 -12 l-40 -16
40 8 c57 10 104 7 117 -6 26 -26 28 -277 3 -373 -6 -24 -4 -27 24 -31 39 -6
40 -1 40 127 0 55 5 165 11 244 5 79 8 146 5 149 -3 3 -10 -8 -15 -25z"/>
<path d="M6006 6031 c-4 -7 -5 -15 -2 -18 9 -9 19 4 14 18 -4 11 -6 11 -12 0z"/>
<path d="M6090 6020 c0 -5 5 -10 11 -10 5 0 7 5 4 10 -3 6 -8 10 -11 10 -2 0
-4 -4 -4 -10z"/>
<path d="M3215 5962 c-68 -38 -143 -90 -151 -105 -4 -7 1 -5 12 4 23 19 57 33
49 20 -3 -5 -1 -12 5 -16 6 -4 7 -13 1 -23 -12 -25 -34 -142 -33 -180 1 -19 8
-48 17 -64 8 -17 15 -39 15 -49 0 -11 5 -16 13 -14 6 3 24 -10 39 -29 25 -32
27 -41 25 -113 -3 -100 9 -120 102 -163 60 -28 72 -39 82 -67 13 -40 6 -85
-23 -151 -37 -85 -55 -166 -62 -272 -4 -58 -9 -134 -11 -170 -2 -36 -7 -139
-10 -230 -5 -146 -4 -169 12 -200 13 -25 24 -35 41 -34 12 0 22 -2 22 -6 0 -3
6 -14 13 -24 12 -16 14 -16 32 6 14 16 15 19 3 9 -9 -7 -21 -10 -26 -7 -5 3
-22 44 -37 91 l-28 85 17 122 c9 71 16 191 16 283 0 174 18 271 74 400 17 41
26 78 26 118 0 66 -1 67 -105 86 -33 6 -65 18 -72 27 -21 28 -26 125 -9 173
21 58 21 60 -13 72 -16 6 -43 29 -62 51 -44 56 -56 129 -33 207 19 66 41 93
101 121 35 16 44 25 41 43 -4 31 -26 31 -83 -1z"/>
<path d="M6887 5973 c-4 -3 -7 -13 -7 -22 0 -13 10 -15 57 -12 l58 3 -35 19
c-37 19 -62 24 -73 12z"/>
<path d="M6217 5963 c-4 -3 -7 -14 -7 -23 0 -31 -26 -53 -65 -56 -32 -3 -45 2
-77 31 -21 19 -43 35 -48 35 -22 0 -9 -53 19 -81 25 -24 37 -29 81 -29 56 0
119 22 121 42 4 52 -9 97 -24 81z"/>
<path d="M6462 5957 c-6 -6 -15 -39 -21 -71 -8 -46 -8 -63 2 -74 6 -8 12 -18
11 -21 -2 -11 60 -51 94 -61 19 -5 47 -6 63 -3 26 5 23 8 -46 42 l-75 36 0 77
c0 76 -8 99 -28 75z"/>
<path d="M7025 5950 l-30 -8 30 0 c17 0 39 3 50 8 l20 9 -20 -1 c-11 0 -33 -4
-50 -8z"/>
<path d="M1856 5935 c-9 -24 -8 -25 15 -25 14 0 19 5 17 17 -4 23 -24 27 -32
8z"/>
<path d="M2650 5812 c0 -5 14 -7 30 -4 17 2 30 6 30 8 0 2 -13 4 -30 4 -16 0
-30 -4 -30 -8z"/>
<path d="M7390 5811 c0 -5 6 -14 14 -21 8 -6 12 -18 9 -27 -5 -13 -3 -13 16
-2 25 16 27 29 6 29 -8 0 -15 4 -15 9 0 5 -7 11 -15 15 -8 3 -15 2 -15 -3z"/>
<path d="M5248 5743 c-34 -22 -44 -43 -19 -43 19 0 32 -20 36 -53 1 -11 -7
-20 -22 -23 -12 -4 -23 -10 -23 -14 0 -4 17 -2 38 6 20 7 44 13 53 14 17 0 39
39 39 68 0 28 -29 62 -53 62 -12 0 -34 -8 -49 -17z"/>
<path d="M6718 5753 c7 -3 16 -2 19 1 4 3 -2 6 -13 5 -11 0 -14 -3 -6 -6z"/>
<path d="M6650 5741 c0 -4 11 -6 25 -3 14 2 25 6 25 8 0 2 -11 4 -25 4 -14 0
-25 -4 -25 -9z"/>
<path d="M4682 5706 c-14 -19 -22 -54 -31 -139 -11 -112 -8 -153 10 -141 5 3
6 -3 2 -13 -3 -10 -2 -15 2 -10 5 4 16 0 26 -9 14 -13 16 -21 8 -35 -7 -14 -6
-19 3 -19 9 0 9 -3 -2 -10 -11 -8 -9 -9 13 -8 15 1 27 5 27 9 0 4 8 6 18 5 13
-1 18 8 20 39 2 36 -1 42 -33 64 -19 13 -38 35 -42 49 -6 27 3 183 13 220 8
29 -10 28 -34 -2z"/>
<path d="M6798 5683 c7 -3 16 -2 19 1 4 3 -2 6 -13 5 -11 0 -14 -3 -6 -6z"/>
<path d="M6735 5670 c-13 -5 -14 -9 -5 -9 8 0 24 4 35 9 13 5 14 9 5 9 -8 0
-24 -4 -35 -9z"/>
<path d="M6920 5634 c-92 -13 -198 -36 -243 -53 -16 -6 -72 -14 -125 -17 -54
-3 -112 -12 -131 -20 -39 -16 -87 -18 -96 -4 -8 13 -65 13 -65 0 0 -14 84 -50
115 -50 12 0 35 6 50 14 16 8 49 15 74 14 25 0 75 5 111 12 111 19 440 102
440 110 0 10 -28 9 -130 -6z"/>
<path d="M2995 5630 c3 -5 21 -10 38 -9 31 1 31 1 7 9 -36 11 -52 11 -45 0z"/>
<path d="M2884 5563 c-20 -38 -46 -78 -57 -90 -35 -39 -4 -25 51 23 49 43 66
78 41 86 -9 3 -9 10 0 26 6 12 10 22 7 22 -3 0 -22 -30 -42 -67z"/>
<path d="M6528 5623 c6 -2 18 -2 25 0 6 3 1 5 -13 5 -14 0 -19 -2 -12 -5z"/>
<path d="M3220 5616 c0 -2 8 -10 18 -17 15 -13 16 -12 3 4 -13 16 -21 21 -21
13z"/>
<path d="M6488 5613 c7 -3 16 -2 19 1 4 3 -2 6 -13 5 -11 0 -14 -3 -6 -6z"/>
<path d="M6200 5599 c0 -9 7 -22 15 -29 19 -16 19 0 0 26 -12 16 -14 16 -15 3z"/>
<path d="M5310 5589 c0 -5 5 -7 10 -4 6 3 10 8 10 11 0 2 -4 4 -10 4 -5 0 -10
-5 -10 -11z"/>
<path d="M3080 5582 c0 -5 7 -15 15 -22 8 -7 15 -8 15 -2 0 5 -7 15 -15 22 -8
7 -15 8 -15 2z"/>
<path d="M7365 5554 c-23 -14 -33 -24 -23 -24 57 0 90 -134 92 -371 1 -158 1
-160 24 -166 13 -3 25 -4 27 -1 22 22 -5 434 -36 551 -12 44 -26 46 -84 11z"/>
<path d="M5150 5541 c0 -39 36 -55 60 -26 11 13 8 15 -14 15 -14 0 -26 5 -26
10 0 6 -4 10 -10 10 -5 0 -10 -4 -10 -9z"/>
<path d="M1805 5520 c-15 -7 -9 -9 24 -9 24 -1 41 2 37 6 -10 11 -39 12 -61 3z"/>
<path d="M2114 5511 c4 -6 15 -11 24 -11 10 0 29 -7 42 -16 l25 -17 -20 21
c-22 23 -83 43 -71 23z"/>
<path d="M7120 5505 l-45 -13 60 -1 c33 0 67 4 75 9 8 5 11 10 5 11 -5 0 -19
2 -30 4 -11 1 -40 -3 -65 -10z"/>
<path d="M1611 5467 c-16 -40 -14 -43 17 -44 15 0 70 -4 122 -8 52 -5 136 -7
185 -6 101 3 142 -10 192 -57 18 -16 36 -47 43 -71 11 -44 37 -63 72 -53 21 5
22 18 3 52 -8 14 -14 34 -15 45 0 31 -69 92 -118 105 -29 7 -83 9 -162 4 -159
-9 -308 9 -320 40 -8 20 -8 20 -19 -7z"/>
<path d="M4408 5483 c7 -3 16 -2 19 1 4 3 -2 6 -13 5 -11 0 -14 -3 -6 -6z"/>
<path d="M7038 5483 c6 -2 18 -2 25 0 6 3 1 5 -13 5 -14 0 -19 -2 -12 -5z"/>
<path d="M4218 5459 c-30 -22 -39 -52 -13 -43 8 4 12 10 9 15 -3 5 5 18 18 29
31 26 20 25 -14 -1z"/>
<path d="M6998 5473 c7 -3 16 -2 19 1 4 3 -2 6 -13 5 -11 0 -14 -3 -6 -6z"/>
<path d="M4610 5411 c0 -11 39 -59 40 -49 0 14 -23 58 -32 58 -4 0 -8 -4 -8
-9z"/>
<path d="M6748 5413 c7 -3 16 -2 19 1 4 3 -2 6 -13 5 -11 0 -14 -3 -6 -6z"/>
<path d="M3850 5400 c-13 -9 -13 -10 0 -9 8 0 24 4 35 9 l20 9 -20 0 c-11 0
-27 -4 -35 -9z"/>
<path d="M6693 5403 c9 -2 23 -2 30 0 6 3 -1 5 -18 5 -16 0 -22 -2 -12 -5z"/>
<path d="M3800 5390 c0 -5 5 -10 11 -10 5 0 7 5 4 10 -3 6 -8 10 -11 10 -2 0
-4 -4 -4 -10z"/>
<path d="M6628 5393 c6 -2 18 -2 25 0 6 3 1 5 -13 5 -14 0 -19 -2 -12 -5z"/>
<path d="M6540 5383 c-14 -3 -29 -9 -35 -14 -10 -10 45 -2 80 12 l20 8 -20 -1
c-11 0 -31 -3 -45 -5z"/>
<path d="M4136 5372 c-2 -4 11 -6 30 -4 19 2 34 6 34 8 0 8 -59 4 -64 -4z"/>
<path d="M3900 5362 c0 -5 7 -9 15 -9 8 0 15 4 15 9 0 4 -7 8 -15 8 -8 0 -15
-4 -15 -8z"/>
<path d="M3988 5363 c6 -2 18 -2 25 0 6 3 1 5 -13 5 -14 0 -19 -2 -12 -5z"/>
<path d="M2700 5350 c0 -5 5 -10 11 -10 5 0 7 5 4 10 -3 6 -8 10 -11 10 -2 0
-4 -4 -4 -10z"/>
<path d="M5908 5312 c-9 -10 1 -12 48 -11 81 1 133 -19 167 -67 24 -34 27 -45
22 -92 l-5 -53 30 17 c49 29 51 74 8 175 l-19 46 -120 -1 c-85 -1 -124 -5
-131 -14z"/>
<path d="M4775 5310 c-3 -5 -1 -10 4 -10 6 0 11 5 11 10 0 6 -2 10 -4 10 -3 0
-8 -4 -11 -10z"/>
<path d="M5400 5269 c-39 -25 -55 -29 -122 -29 -85 0 -108 5 -108 26 0 19 -3
18 -58 -16 -39 -25 -43 -29 -22 -28 45 2 58 -2 64 -18 5 -12 2 -15 -11 -10
-14 6 -15 4 -7 -4 16 -16 71 -15 137 1 52 14 187 77 187 88 0 20 -17 17 -60
-10z"/>
<path d="M4690 5267 c0 -13 -9 -32 -19 -41 -19 -18 -37 -61 -20 -50 5 3 23 -4
39 -16 18 -13 37 -19 49 -15 19 6 19 7 1 58 -27 78 -31 87 -41 87 -5 0 -9 -11
-9 -23z"/>
<path d="M1810 5259 c0 -4 -8 -9 -17 -11 -16 -3 -16 -4 -1 -10 9 -4 23 0 32
11 14 15 14 18 1 18 -8 0 -15 -4 -15 -8z"/>
<path d="M1695 5204 c-10 -20 -22 -67 -27 -103 -12 -86 -23 -142 -33 -163 -12
-30 30 -22 51 10 15 21 20 54 25 142 3 63 10 123 14 133 14 34 -13 16 -30 -19z"/>
<path d="M3018 5223 c7 -3 16 -2 19 1 4 3 -2 6 -13 5 -11 0 -14 -3 -6 -6z"/>
<path d="M3729 5189 c-11 -23 -16 -38 -10 -34 6 3 11 1 11 -5 0 -6 4 -9 9 -6
5 4 11 3 13 -1 1 -5 18 -16 36 -25 26 -14 58 -18 137 -18 103 0 105 0 140 -31
20 -18 42 -44 50 -58 33 -61 83 -101 129 -101 14 0 28 -4 31 -10 4 -6 30 2 66
20 l59 30 0 -35 c0 -24 -12 -53 -35 -88 -43 -66 -54 -140 -31 -208 9 -26 17
-59 18 -73 3 -31 0 -30 43 -12 43 18 44 32 5 81 -25 32 -30 46 -30 94 1 112
12 137 84 207 46 45 66 72 66 89 0 16 -6 25 -15 25 -21 0 -68 -25 -84 -44 -17
-20 -114 -76 -133 -76 -18 0 -127 130 -153 184 l-20 41 -145 -4 c-160 -4 -157
-5 -181 62 -17 48 -34 47 -60 -4z"/>
<path d="M5410 5220 c-9 -6 -10 -10 -3 -10 6 0 15 5 18 10 8 12 4 12 -15 0z"/>
<path d="M2877 5213 c-23 -22 20 -24 98 -3 25 7 19 8 -31 9 -33 1 -64 -2 -67
-6z"/>
<path d="M5018 5213 c6 -2 18 -2 25 0 6 3 1 5 -13 5 -14 0 -19 -2 -12 -5z"/>
<path d="M4953 5203 c9 -2 25 -2 35 0 9 3 1 5 -18 5 -19 0 -27 -2 -17 -5z"/>
<path d="M4590 5147 c0 -16 96 -87 117 -87 5 0 21 -14 36 -31 15 -18 30 -29
33 -26 10 10 -32 50 -101 95 -38 24 -73 50 -77 56 -5 7 -8 4 -8 -7z"/>
<path d="M5210 5150 c0 -5 9 -10 19 -10 11 0 23 5 26 10 4 6 -5 10 -19 10 -14
0 -26 -4 -26 -10z"/>
<path d="M5105 5112 c-26 -18 -48 -55 -71 -118 -13 -37 -28 -71 -32 -74 -4 -3
-15 -14 -25 -26 -15 -18 -15 -23 -3 -33 11 -9 20 -2 45 37 32 51 105 211 99
217 -2 2 -8 1 -13 -3z"/>
<path d="M2879 5082 c5 -10 18 -25 27 -33 11 -9 9 -2 -6 19 -26 35 -36 42 -21
14z"/>
<path d="M6811 5065 c-29 -18 -61 -41 -70 -49 -23 -24 3 -20 47 7 20 12 49 29
65 36 15 8 27 20 27 28 0 18 -8 16 -69 -22z"/>
<path d="M7084 5065 c32 -20 60 -34 63 -32 6 7 -92 67 -108 67 -8 0 12 -16 45
-35z"/>
<path d="M6907 5073 c-12 -11 -8 -23 8 -23 8 0 15 7 15 15 0 16 -12 20 -23 8z"/>
<path d="M6953 5043 c9 -2 23 -2 30 0 6 3 -1 5 -18 5 -16 0 -22 -2 -12 -5z"/>
<path d="M6051 5009 c-13 -10 -19 -19 -14 -19 13 0 49 27 43 33 -3 3 -16 -3
-29 -14z"/>
<path d="M7160 5022 c0 -12 19 -26 26 -19 2 2 -2 10 -11 17 -9 8 -15 8 -15 2z"/>
<path d="M6037 4970 c-38 -17 -52 -17 -126 6 -18 5 -23 4 -19 -7 13 -38 140
-41 176 -5 23 23 12 25 -31 6z"/>
<path d="M7386 4981 c11 -10 74 -32 74 -25 0 5 -65 34 -77 34 -4 0 -3 -4 3 -9z"/>
<path d="M6657 4953 c-8 -10 -24 -50 -35 -89 l-20 -71 24 5 c13 2 28 9 32 16
5 8 21 156 16 156 0 0 -8 -8 -17 -17z"/>
<path d="M7501 4954 c0 -11 3 -14 6 -6 3 7 2 16 -1 19 -3 4 -6 -2 -5 -13z"/>
<path d="M5550 4923 c-20 -26 -21 -28 -3 -41 10 -7 29 -12 43 -10 32 4 34 44
4 65 -20 13 -24 12 -44 -14z"/>
<path d="M4875 4890 c28 -12 45 -12 45 0 0 6 -15 10 -32 9 -28 0 -30 -2 -13
-9z"/>
<path d="M4777 4879 c7 -7 15 -10 18 -7 3 3 -2 9 -12 12 -14 6 -15 5 -6 -5z"/>
<path d="M2869 4863 c-13 -16 -12 -17 4 -4 16 13 21 21 13 21 -2 0 -10 -8 -17
-17z"/>
<path d="M5510 4849 c0 -20 85 -26 93 -6 3 8 -10 12 -44 12 -27 0 -49 -3 -49
-6z"/>
<path d="M2829 4833 c-13 -16 -12 -17 4 -4 16 13 21 21 13 21 -2 0 -10 -8 -17
-17z"/>
<path d="M4945 4830 c3 -5 11 -10 16 -10 6 0 7 5 4 10 -3 6 -11 10 -16 10 -6
0 -7 -4 -4 -10z"/>
<path d="M6650 4781 c0 -5 -17 -13 -37 -18 -20 -4 -38 -14 -40 -20 -5 -14 63
2 85 19 15 12 16 28 2 28 -5 0 -10 -4 -10 -9z"/>
<path d="M2467 4743 c-6 -34 -5 -37 10 -14 6 10 8 23 3 30 -5 9 -9 3 -13 -16z"/>
<path d="M4671 4751 c-12 -12 -21 -32 -21 -45 0 -29 24 -89 43 -104 27 -23
126 23 101 48 -5 5 -27 10 -49 12 l-40 3 0 47 c0 57 -7 66 -34 39z"/>
<path d="M6934 4728 l-19 -23 25 20 c14 11 27 21 29 22 2 2 0 3 -6 3 -5 0 -18
-10 -29 -22z"/>
<path d="M2360 4665 c-6 -17 -12 -35 -15 -42 -10 -31 -105 -26 -148 7 -24 19
-24 19 -45 -9 -21 -28 -21 -29 -2 -34 11 -3 55 -3 98 0 77 6 78 5 98 -23 16
-24 19 -48 20 -135 1 -107 12 -149 40 -149 8 0 26 -7 39 -16 20 -13 34 -14 72
-7 l48 9 -60 13 c-33 7 -66 14 -72 16 -10 3 -13 41 -13 142 0 123 -3 144 -24
198 l-25 60 -11 -30z"/>
<path d="M2504 4632 c0 -26 1 -40 4 -32 3 8 9 18 15 21 11 7 1 59 -11 59 -4 0
-7 -21 -8 -48z"/>
<path d="M5294 4659 c-13 -21 7 -44 38 -46 157 -7 249 -21 268 -38 22 -20 27
-70 8 -78 -7 -3 6 -6 28 -6 48 -1 51 3 60 84 l7 54 -119 -2 c-90 -1 -139 4
-202 20 -45 11 -85 17 -88 12z"/>
<path d="M6015 4648 c-6 -14 10 -68 19 -68 3 0 16 4 30 10 32 12 38 60 7 60
-11 0 -26 3 -35 6 -9 3 -18 0 -21 -8z"/>
<path d="M6970 4628 c1 -43 28 -152 30 -118 l1 25 24 -29 c13 -16 39 -58 57
-93 18 -35 43 -75 56 -90 12 -14 22 -33 22 -42 0 -14 2 -14 10 -1 6 10 10 11
10 3 0 -7 7 -13 15 -13 20 0 137 -39 151 -51 14 -12 17 -87 4 -143 -5 -25 -12
-63 -15 -83 -6 -44 -25 -112 -76 -268 -21 -66 -39 -128 -39 -138 0 -10 -18
-50 -40 -89 -22 -39 -38 -73 -36 -76 12 -11 57 10 66 31 70 176 220 731 220
817 0 17 -2 17 -40 3 -38 -15 -43 -15 -101 8 -56 22 -66 31 -108 94 -26 39
-62 96 -80 128 -38 68 -107 157 -121 157 -6 0 -10 -15 -10 -32z"/>
<path d="M4670 4580 c8 -5 20 -10 25 -10 6 0 3 5 -5 10 -8 5 -19 10 -25 10 -5
0 -3 -5 5 -10z"/>
<path d="M6043 4568 c-13 -6 -23 -15 -23 -20 0 -10 36 7 45 22 7 12 7 12 -22
-2z"/>
<path d="M1785 4520 c-7 -11 16 -11 60 0 28 7 28 8 -12 9 -23 0 -45 -3 -48 -9z"/>
<path d="M6261 4511 c-42 -7 -51 -28 -19 -40 28 -11 52 -43 62 -86 9 -35 44
-84 102 -141 24 -23 41 -44 39 -46 -3 -2 27 0 65 5 38 6 67 14 64 18 -3 5 -12
9 -21 9 -23 0 -102 52 -142 94 -28 29 -37 50 -50 113 -18 86 -22 89 -100 74z"/>
<path d="M5355 4488 c11 -9 34 -18 50 -22 43 -9 253 -11 261 -3 4 4 -26 7 -67
8 -90 1 -217 13 -244 24 l-20 7 20 -14z"/>
<path d="M4301 4455 c0 -6 -11 -21 -23 -35 -13 -14 -36 -50 -52 -80 l-29 -55
37 35 c43 40 79 104 73 128 -3 9 -5 12 -6 7z"/>
<path d="M6744 4442 c-22 -15 -37 -53 -24 -66 8 -8 10 -7 5 5 -3 8 3 26 15 39
26 29 27 38 4 22z"/>
<path d="M7370 4409 c-11 -8 -6 -9 22 -4 22 3 47 1 59 -6 17 -9 20 -8 17 3 -6
16 -78 22 -98 7z"/>
<path d="M1957 4334 c-34 -23 -45 -25 -91 -20 -49 7 -53 5 -64 -18 -10 -24
-10 -24 15 -11 14 7 41 12 61 10 20 -2 44 1 54 6 13 7 18 6 18 -2 0 -7 3 -9 7
-6 3 4 15 0 25 -10 10 -9 18 -12 18 -8 0 4 10 -3 23 -17 28 -33 60 -43 76 -24
10 11 8 15 -6 20 -10 3 -29 27 -43 53 -14 27 -32 49 -40 51 -8 1 -32 -9 -53
-24z"/>
<path d="M6792 4300 c2 -29 6 -37 13 -27 6 7 18 11 28 9 9 -2 17 2 17 8 0 6 4
9 9 5 5 -3 12 -1 15 3 5 8 -55 42 -75 42 -5 0 -8 -18 -7 -40z"/>
<path d="M2885 4279 c-5 -37 -3 -53 11 -73 9 -15 22 -25 29 -22 7 2 17 0 22
-5 6 -6 24 -4 49 5 l39 15 -42 -6 c-41 -5 -42 -5 -64 38 -12 24 -25 55 -29 69
-6 22 -8 19 -15 -21z"/>
<path d="M2199 4273 c-13 -16 -12 -17 4 -4 9 7 17 15 17 17 0 8 -8 3 -21 -13z"/>
<path d="M6017 4260 c-15 -8 -27 -19 -27 -23 0 -5 5 -5 11 -1 6 3 32 8 58 10
25 2 66 8 91 12 44 9 44 9 -31 13 -55 3 -83 0 -102 -11z"/>
<path d="M7088 4263 c7 -3 16 -2 19 1 4 3 -2 6 -13 5 -11 0 -14 -3 -6 -6z"/>
<path d="M7630 4255 c0 -9 6 -17 13 -19 6 -2 35 -9 62 -15 28 -7 52 -16 53
-22 2 -5 15 -9 28 -9 14 0 57 -16 97 -36 91 -46 199 -155 222 -225 16 -47 17
-116 3 -125 -5 -3 -15 -19 -24 -36 l-16 -32 41 33 c78 62 88 111 42 207 -57
121 -187 212 -386 268 -103 30 -135 32 -135 11z"/>
<path d="M2610 4250 c-13 -8 -12 -10 3 -10 9 0 17 5 17 10 0 12 -1 12 -20 0z"/>
<path d="M6950 4246 c-30 -5 -46 -11 -35 -13 11 -2 52 3 90 11 78 16 32 17
-55 2z"/>
<path d="M4696 4204 c-14 -26 -20 -41 -13 -35 8 6 18 7 22 3 5 -4 5 -2 1 5 -3
6 26 -8 66 -32 67 -41 78 -45 143 -45 39 0 106 3 150 8 53 6 100 5 141 -3 75
-14 153 -11 264 10 47 8 90 16 95 17 31 5 93 -27 139 -70 l53 -50 89 5 c108 7
122 13 28 13 -38 0 -75 4 -83 9 -8 5 -24 33 -36 63 l-21 53 -80 0 c-43 0 -113
-8 -155 -18 -74 -16 -79 -16 -155 3 -75 19 -82 20 -169 5 -66 -12 -118 -14
-195 -9 -125 8 -180 28 -212 78 -13 20 -28 36 -35 36 -6 0 -23 -21 -37 -46z"/>
<path d="M3135 4230 c-3 -5 -2 -10 4 -10 5 0 13 5 16 10 3 6 2 10 -4 10 -5 0
-13 -4 -16 -10z"/>
<path d="M6590 4202 c0 -19 3 -20 31 -10 17 6 50 8 75 5 24 -2 46 -2 48 2 3 4
-3 7 -12 7 -9 1 -45 5 -79 9 -60 7 -63 6 -63 -13z"/>
<path d="M6835 4154 c3 -27 7 -62 8 -79 2 -22 9 -32 29 -39 15 -5 31 -7 34 -3
4 4 9 32 12 62 l4 55 -30 0 c-24 0 -31 5 -34 22 -2 12 -9 23 -17 26 -10 3 -12
-6 -6 -44z"/>
<path d="M1719 4173 c-13 -17 -13 -17 6 -3 11 8 22 16 24 17 2 2 0 3 -6 3 -6
0 -17 -8 -24 -17z"/>
<path d="M6394 4163 c-62 -11 -64 -11 -14 -7 116 9 153 14 159 19 7 8 -62 2
-145 -12z"/>
<path d="M2062 4143 c-8 -19 -8 -49 -2 -93 9 -64 8 -66 -35 -155 -23 -49 -63
-133 -88 -186 -25 -53 -57 -115 -72 -139 -14 -23 -24 -44 -21 -47 15 -16 42
16 78 94 22 49 83 175 134 282 51 107 91 198 89 201 -3 4 -21 11 -41 14 -32 7
-35 10 -30 32 8 32 1 31 -12 -3z"/>
<path d="M1665 4134 c-18 -16 -22 -22 -9 -15 18 9 53 42 43 41 -2 -1 -17 -12
-34 -26z"/>
<path d="M5911 4143 c0 -12 -4 -30 -7 -40 -5 -17 -5 -17 6 0 6 10 9 28 7 40
-4 22 -4 22 -6 0z"/>
<path d="M4000 4105 c-5 -14 -11 -53 -11 -85 -2 -57 0 -61 40 -102 l42 -42 45
12 c58 16 72 15 90 -3 33 -32 56 -152 69 -365 4 -52 13 -135 22 -183 8 -49 13
-103 11 -120 -3 -31 -1 -32 37 -35 22 -1 35 1 29 5 -6 5 -18 93 -28 198 -9
105 -24 240 -32 300 -8 61 -14 126 -14 146 0 72 -11 100 -44 114 -24 11 -34
11 -46 1 -30 -24 -120 -60 -129 -50 -12 12 -51 164 -51 198 0 35 -18 42 -30
11z"/>
<path d="M4405 4105 c-121 -31 -153 -44 -136 -54 16 -11 74 2 105 23 14 8 26
11 28 6 2 -6 16 -6 38 -1 19 5 52 12 73 16 22 3 35 10 31 16 -4 7 8 10 34 8
23 -2 44 0 48 4 17 16 -138 4 -221 -18z"/>
<path d="M6284 4089 c-18 -59 1 -209 26 -209 5 0 13 33 20 73 6 39 13 82 16
94 3 18 -1 24 -20 29 -15 3 -26 14 -28 27 -2 18 -5 15 -14 -14z"/>
<path d="M1355 4079 c-55 -23 -73 -35 -37 -26 12 3 22 1 22 -4 0 -5 6 -9 14
-9 26 0 52 -47 75 -137 12 -48 26 -95 30 -103 4 -8 20 -60 35 -115 15 -55 36
-131 47 -168 11 -38 18 -75 15 -83 -3 -8 -1 -14 5 -14 6 0 8 -4 4 -9 -6 -11
62 -27 72 -17 4 4 -12 64 -35 134 -54 166 -104 343 -134 467 -26 115 -31 118
-113 84z"/>
<path d="M8220 4084 c0 -23 48 -138 59 -142 8 -3 10 5 5 25 -11 44 -64 141
-64 117z"/>
<path d="M5355 4070 c3 -5 8 -10 11 -10 2 0 4 5 4 10 0 6 -5 10 -11 10 -5 0
-7 -4 -4 -10z"/>
<path d="M2404 4054 c-19 -15 -19 -15 1 -6 11 5 27 12 35 15 13 5 13 6 -1 6
-8 1 -24 -6 -35 -15z"/>
<path d="M5258 4053 c6 -2 18 -2 25 0 6 3 1 5 -13 5 -14 0 -19 -2 -12 -5z"/>
<path d="M5066 3994 c-11 -8 -16 -14 -11 -14 5 0 4 -5 -2 -11 -7 -7 -8 -21 -5
-33 10 -27 4 -108 -8 -123 -2 -2 -3 -6 -4 -10 -2 -12 -36 -58 -36 -50 0 5 -7
2 -15 -7 -16 -16 -20 -52 -6 -60 4 -3 17 14 27 37 10 23 35 65 55 92 41 55 79
120 79 135 0 5 -10 10 -22 12 -13 2 -24 12 -28 25 -4 19 -7 20 -24 7z"/>
<path d="M6761 4001 c-8 -5 5 -7 35 -4 27 3 51 7 53 9 9 8 -75 3 -88 -5z"/>
<path d="M742 3956 c-23 -24 -42 -48 -42 -55 0 -6 -3 -11 -8 -11 -13 0 -39
-72 -47 -128 -14 -104 61 -242 172 -315 24 -17 47 -36 50 -44 3 -7 9 -13 14
-13 5 0 26 -11 47 -24 20 -14 87 -43 147 -66 61 -23 124 -48 140 -55 34 -16
195 -56 332 -84 135 -27 137 -29 211 -201 11 -25 23 -55 26 -67 4 -13 12 -23
17 -23 5 0 9 -6 9 -12 0 -23 199 -406 252 -486 15 -22 50 -80 77 -128 28 -48
55 -90 60 -93 5 -3 37 -51 71 -106 65 -104 105 -158 152 -210 15 -16 28 -33
28 -36 0 -13 139 -181 249 -303 131 -144 377 -381 469 -451 15 -11 40 -33 57
-49 27 -26 79 -66 226 -171 23 -16 65 -47 93 -67 28 -20 52 -35 54 -33 2 2 35
-17 74 -42 98 -63 316 -186 418 -234 102 -49 277 -121 305 -125 11 -2 47 -12
79 -24 59 -20 166 -28 166 -12 0 19 -40 42 -130 75 -374 136 -864 415 -1230
699 -69 54 -139 113 -286 245 -50 45 -94 80 -96 77 -12 -11 -267 279 -423 482
-253 329 -533 811 -695 1199 -19 44 -39 85 -44 91 -6 6 -63 21 -126 33 -402
77 -664 191 -819 356 -101 108 -127 221 -77 330 15 33 38 74 52 92 34 45 27
41 -24 -11z m2287 -2697 c45 -47 299 -251 414 -333 344 -243 759 -467 1075
-580 85 -30 116 -45 108 -53 -3 -3 -51 11 -108 32 -419 153 -827 386 -1257
718 -63 49 -254 223 -311 284 l-55 58 59 -55 c33 -30 67 -62 75 -71z"/>
<path d="M2197 3955 c-24 -50 -20 -58 4 -12 11 22 19 41 17 43 -3 2 -12 -12
-21 -31z"/>
<path d="M4598 3983 c6 -2 10 -9 7 -13 -3 -5 1 -37 10 -70 17 -67 8 -133 -20
-144 -16 -6 -21 -56 -6 -56 4 0 30 32 56 72 47 70 47 72 41 131 -7 73 -18 87
-65 86 -20 0 -30 -3 -23 -6z"/>
<path d="M5014 3971 c-5 -5 -20 -11 -34 -14 -21 -4 -20 -4 7 -6 17 0 35 4 38
10 9 14 1 21 -11 10z"/>
<path d="M6841 3914 c-22 -28 -37 -86 -26 -103 3 -6 1 -11 -5 -11 -7 0 -8 -17
-4 -51 5 -37 3 -53 -6 -59 -18 -11 -4 -80 16 -80 30 0 51 58 63 175 16 151 6
185 -38 129z"/>
<path d="M6188 3923 c6 -2 18 -2 25 0 6 3 1 5 -13 5 -14 0 -19 -2 -12 -5z"/>
<path d="M6470 3896 c0 -14 -5 -28 -11 -31 -6 -4 -8 -13 -5 -20 2 -7 0 -17 -5
-22 -13 -13 -24 -103 -12 -103 6 0 8 11 5 25 -2 15 0 25 7 25 6 0 11 11 11 24
0 14 4 27 10 31 5 3 7 12 4 19 -3 8 -1 17 5 21 14 8 14 55 1 55 -5 0 -10 -11
-10 -24z"/>
<path d="M6610 3900 c0 -15 -42 -50 -53 -43 -6 4 -7 1 -2 -7 4 -7 3 -15 -2
-19 -10 -6 -39 -188 -48 -294 -5 -54 -3 -58 20 -67 17 -6 25 -17 25 -32 0 -13
11 -36 25 -52 14 -16 25 -26 25 -22 0 4 7 0 16 -8 8 -9 27 -16 42 -16 55 1
304 48 315 60 9 10 9 11 -2 5 -10 -6 -12 -4 -7 4 4 6 13 11 19 10 25 -3 38 1
33 10 -4 5 7 12 24 16 16 4 32 10 35 15 7 11 -37 -2 -100 -30 -27 -12 -61 -26
-75 -30 -14 -4 -33 -11 -42 -15 -13 -5 -18 -2 -18 8 0 14 -4 14 -35 1 -65 -27
-132 -10 -193 49 -74 72 -80 259 -12 404 16 35 25 63 19 63 -5 0 -9 -4 -9 -10z"/>
<path d="M5985 3890 l-50 -7 45 -1 c25 0 54 3 65 8 23 10 12 10 -60 0z"/>
<path d="M5863 3873 c15 -2 37 -2 50 0 12 2 0 4 -28 4 -27 0 -38 -2 -22 -4z"/>
<path d="M2155 3859 c-4 -6 -5 -12 -2 -15 2 -3 7 2 10 11 7 17 1 20 -8 4z"/>
<path d="M5558 3853 c12 -2 30 -2 40 0 9 3 -1 5 -23 4 -22 0 -30 -2 -17 -4z"/>
<path d="M5784 3806 c-17 -22 -19 -34 -14 -78 12 -86 -13 -216 -57 -302 -9
-17 -39 -55 -67 -85 -28 -31 -42 -49 -31 -40 11 9 27 20 35 24 13 8 13 7 0
-10 -8 -10 -10 -16 -3 -12 13 8 28 -27 19 -42 -11 -17 36 -23 128 -16 145 12
148 13 159 24 20 20 -9 28 -76 20 -34 -3 -87 -9 -117 -13 l-56 -6 6 53 c4 44
8 52 27 55 12 2 27 10 33 17 7 8 26 98 44 201 31 175 32 187 15 191 -10 3 -19
14 -21 25 -3 18 -4 18 -24 -6z"/>
<path d="M2893 3772 c-33 -44 -111 -234 -120 -288 -16 -96 71 42 138 219 23
63 30 90 22 98 -8 8 -19 0 -40 -29z"/>
<path d="M3152 3770 c-6 -10 -10 -43 -10 -75 0 -35 4 -52 9 -43 6 9 9 6 9 -12
2 -93 12 -212 27 -312 15 -107 19 -118 38 -118 11 0 27 5 35 10 12 8 12 10 -5
10 -18 0 -20 7 -20 58 0 108 -16 423 -22 440 -4 9 -16 26 -28 38 -21 19 -23
19 -33 4z"/>
<path d="M5507 3758 c-24 -51 -58 -195 -64 -273 l-6 -70 21 18 c29 27 103 321
87 347 -11 18 -22 11 -38 -22z"/>
<path d="M6258 3748 c-39 -42 -46 -44 -130 -23 -23 6 -29 3 -44 -26 -12 -24
-13 -31 -3 -23 20 16 78 23 115 12 43 -12 49 -47 24 -161 -11 -50 -19 -92 -17
-93 7 -8 46 10 51 23 3 8 15 76 26 151 11 76 22 147 24 160 5 30 -3 27 -46
-20z"/>
<path d="M3475 3771 c3 -5 1 -12 -5 -16 -5 -3 -10 -27 -10 -52 0 -46 0 -46 20
-28 30 27 62 83 55 95 -3 5 -20 10 -36 10 -17 0 -28 -4 -24 -9z"/>
<path d="M6686 3700 c-7 -50 -3 -70 13 -70 8 0 5 109 -3 117 -2 2 -6 -19 -10
-47z"/>
<path d="M3947 3722 c-9 -10 -17 -26 -17 -35 0 -26 29 -20 36 8 9 37 1 49 -19
27z"/>
<path d="M5254 3695 c-61 -72 -88 -146 -89 -240 0 -73 4 -88 40 -164 l39 -83
116 4 c68 2 123 9 135 17 17 11 13 12 -28 7 -165 -19 -266 89 -255 275 3 55
11 83 45 149 22 44 39 80 37 80 -1 0 -20 -20 -40 -45z"/>
<path d="M3669 3678 c-84 -109 -102 -133 -73 -103 27 29 27 30 21 5 -4 -14 -7
-33 -7 -43 0 -10 -4 -16 -8 -13 -4 2 -8 -3 -9 -12 -1 -9 -3 -40 -6 -67 -9
-100 29 -239 68 -249 34 -10 233 -7 240 3 3 6 -11 8 -32 5 -55 -7 -125 13
-166 47 -94 78 -85 257 22 413 37 54 38 56 7 56 -17 0 -35 -13 -57 -42z"/>
<path d="M2600 3690 c-14 -10 -22 -22 -18 -25 9 -9 26 2 38 26 13 23 11 23
-20 -1z"/>
<path d="M861 3668 c21 -39 61 -88 72 -88 6 0 2 9 -10 19 -11 11 -30 35 -42
55 -25 40 -39 49 -20 14z"/>
<path d="M2692 3650 c-7 -11 -8 -20 -3 -20 9 0 24 30 18 36 -1 2 -8 -6 -15
-16z"/>
<path d="M5708 3638 c-19 -19 -13 -24 11 -9 7 5 12 13 10 18 -2 5 -12 1 -21
-9z"/>
<path d="M4666 3534 c-21 -31 -34 -54 -29 -51 18 12 43 -52 62 -163 11 -62 18
-117 16 -121 -7 -11 30 -17 62 -11 27 5 27 6 5 11 -21 6 -24 13 -28 81 -11
162 -30 304 -40 307 -6 2 -28 -22 -48 -53z"/>
<path d="M6980 3580 c0 -5 5 -10 10 -10 6 0 10 5 10 10 0 6 -4 10 -10 10 -5 0
-10 -4 -10 -10z"/>
<path d="M3544 3518 l-19 -23 23 19 c12 11 22 21 22 23 0 8 -8 2 -26 -19z"/>
<path d="M2515 3470 c-14 -28 -23 -56 -19 -62 4 -6 3 -8 -3 -5 -6 4 -13 0 -16
-8 -4 -8 -1 -12 7 -9 7 3 36 -23 64 -57 29 -33 52 -58 52 -54 0 4 15 -3 34
-14 45 -28 93 -26 182 5 41 15 73 28 72 30 -2 1 -24 -2 -49 -8 -26 -6 -71 -8
-102 -4 -101 13 -161 75 -173 177 -4 32 -10 59 -15 59 -5 0 -20 -23 -34 -50z"/>
<path d="M5930 3510 c0 -5 5 -10 11 -10 5 0 7 5 4 10 -3 6 -8 10 -11 10 -2 0
-4 -4 -4 -10z"/>
<path d="M4130 3500 c-9 -6 -10 -10 -3 -10 6 0 15 5 18 10 8 12 4 12 -15 0z"/>
<path d="M7140 3495 c-11 -13 -10 -14 4 -9 9 3 16 10 16 15 0 13 -6 11 -20 -6z"/>
<path d="M3876 3484 c-8 -22 -8 -26 4 -19 6 3 10 1 10 -5 0 -6 4 -9 9 -6 5 4
22 1 38 -5 40 -17 63 -18 63 -3 0 6 7 14 15 18 8 3 15 12 15 21 0 23 -145 22
-154 -1z"/>
<path d="M6395 3470 c3 -5 13 -10 21 -10 8 0 12 5 9 10 -3 6 -13 10 -21 10 -8
0 -12 -4 -9 -10z"/>
<path d="M2866 3451 c-4 -7 -5 -15 -2 -18 9 -9 19 4 14 18 -4 11 -6 11 -12 0z"/>
<path d="M5920 3420 c0 -6 7 -10 15 -10 8 0 15 2 15 4 0 2 -7 6 -15 10 -8 3
-15 1 -15 -4z"/>
<path d="M1850 3396 c0 -10 16 -17 48 -21 26 -3 65 -10 87 -15 71 -17 262 -43
300 -41 6 0 37 4 70 8 56 8 45 10 -205 46 -299 42 -300 42 -300 23z"/>
<path d="M2233 3403 c9 -2 23 -2 30 0 6 3 -1 5 -18 5 -16 0 -22 -2 -12 -5z"/>
<path d="M6541 3384 c0 -11 3 -14 6 -6 3 7 2 16 -1 19 -3 4 -6 -2 -5 -13z"/>
<path d="M7655 3385 c-22 -8 -31 -13 -20 -13 11 0 36 6 55 13 45 17 18 17 -35
0z"/>
<path d="M2966 3353 l-20 -27 27 20 c26 18 35 34 20 34 -5 0 -17 -13 -27 -27z"/>
<path d="M6164 3328 l-1 -50 31 5 c17 3 79 11 138 18 107 12 141 26 116 47
-13 10 -187 -9 -239 -27 -23 -8 -25 -7 -21 19 2 17 -1 29 -10 32 -10 4 -13 -7
-14 -44z"/>
<path d="M7588 3363 c7 -3 16 -2 19 1 4 3 -2 6 -13 5 -11 0 -14 -3 -6 -6z"/>
<path d="M7548 3353 c7 -3 16 -2 19 1 4 3 -2 6 -13 5 -11 0 -14 -3 -6 -6z"/>
<path d="M2425 3330 c-3 -5 -2 -10 4 -10 5 0 13 5 16 10 3 6 2 10 -4 10 -5 0
-13 -4 -16 -10z"/>
<path d="M2705 3330 c11 -5 29 -8 40 -8 16 0 15 2 -5 8 -34 11 -60 11 -35 0z"/>
<path d="M7468 3333 c7 -3 16 -2 19 1 4 3 -2 6 -13 5 -11 0 -14 -3 -6 -6z"/>
<path d="M7418 3323 c7 -3 16 -2 19 1 4 3 -2 6 -13 5 -11 0 -14 -3 -6 -6z"/>
<path d="M7378 3313 c7 -3 16 -2 19 1 4 3 -2 6 -13 5 -11 0 -14 -3 -6 -6z"/>
<path d="M3714 3276 c11 -9 24 -16 30 -16 12 0 7 5 -24 19 -24 11 -24 11 -6
-3z"/>
<path d="M1548 3273 c7 -3 16 -2 19 1 4 3 -2 6 -13 5 -11 0 -14 -3 -6 -6z"/>
<path d="M1595 3260 c11 -5 29 -9 40 -9 l20 0 -20 9 c-11 5 -29 9 -40 9 l-20
0 20 -9z"/>
<path d="M5430 3260 c-12 -8 -10 -10 8 -10 13 0 20 4 17 10 -7 12 -6 12 -25 0z"/>
<path d="M3936 3253 c5 -5 11 -12 15 -16 3 -4 11 -2 17 5 9 11 5 14 -15 16
-15 1 -22 -1 -17 -5z"/>
<path d="M7069 3256 c-5 -5 -342 -61 -459 -76 -118 -14 -153 -21 -147 -26 2
-3 35 0 73 6 38 5 96 12 129 15 33 2 95 11 138 20 111 21 172 20 197 -5 11
-11 20 -26 20 -34 0 -26 -45 -145 -59 -156 -4 -3 -40 -72 -80 -155 -41 -82
-80 -156 -88 -164 -9 -8 -29 -44 -46 -80 -17 -36 -48 -87 -69 -113 -35 -43
-49 -78 -30 -78 5 0 19 19 32 43 13 23 36 58 51 77 60 76 360 648 370 705 4
17 -20 33 -32 21z"/>
<path d="M1738 3233 c7 -3 16 -2 19 1 4 3 -2 6 -13 5 -11 0 -14 -3 -6 -6z"/>
<path d="M1975 3180 c-8 -13 5 -13 25 0 13 8 13 10 -2 10 -9 0 -20 -4 -23 -10z"/>
<path d="M2043 3183 c9 -2 23 -2 30 0 6 3 -1 5 -18 5 -16 0 -22 -2 -12 -5z"/>
<path d="M2143 3173 c9 -2 25 -2 35 0 9 3 1 5 -18 5 -19 0 -27 -2 -17 -5z"/>
<path d="M2228 3163 c12 -2 30 -2 40 0 9 3 -1 5 -23 4 -22 0 -30 -2 -17 -4z"/>
<path d="M1987 3124 c-15 -16 6 -31 39 -27 43 4 105 -12 133 -35 18 -15 22
-32 26 -132 5 -98 10 -168 18 -252 1 -9 6 -14 11 -11 5 4 7 0 4 -8 -4 -9 2
-14 16 -15 11 -1 31 -4 44 -7 12 -3 22 -4 22 -1 0 2 -16 36 -35 75 l-36 70 17
53 17 53 -27 46 -27 46 26 45 c42 72 36 79 -80 93 -119 13 -160 15 -168 7z"/>
<path d="M6119 3125 c-2 -2 -41 -6 -86 -10 -45 -3 -96 -10 -113 -15 -17 -5
-28 -5 -26 -1 6 10 -53 7 -77 -4 -10 -4 -37 -5 -60 -2 -27 4 -35 3 -22 -2 19
-8 18 -9 -5 -13 -33 -6 169 -1 242 7 66 6 113 -11 127 -48 11 -27 0 -93 -28
-177 -12 -36 -26 -81 -32 -100 -6 -19 -22 -59 -36 -89 -13 -29 -26 -60 -28
-70 -7 -36 -37 -118 -56 -152 -16 -31 -17 -38 -5 -42 8 -3 19 0 24 6 6 7 60
146 121 309 100 269 110 301 104 343 -3 28 -12 49 -23 55 -10 5 -19 8 -21 5z"/>
<path d="M5615 3100 c-3 -5 1 -10 10 -10 9 0 13 5 10 10 -3 6 -8 10 -10 10 -2
0 -7 -4 -10 -10z"/>
<path d="M5670 3100 c0 -5 9 -10 21 -10 11 0 17 5 14 10 -3 6 -13 10 -21 10
-8 0 -14 -4 -14 -10z"/>
<path d="M5788 3103 c7 -3 16 -2 19 1 4 3 -2 6 -13 5 -11 0 -14 -3 -6 -6z"/>
<path d="M5410 3089 c-47 -4 -131 -9 -187 -11 -57 -1 -95 -6 -85 -9 9 -4 55
-5 102 -2 98 5 233 11 270 12 20 1 22 3 10 11 -8 5 -17 9 -20 8 -3 0 -43 -4
-90 -9z"/>
<path d="M5546 3092 c-3 -5 8 -9 24 -9 16 0 27 4 24 9 -3 4 -14 8 -24 8 -10 0
-21 -4 -24 -8z"/>
<path d="M5650 3081 c0 -7 -42 -12 -235 -26 -33 -2 -130 -7 -215 -10 -85 -3
-168 -8 -185 -10 -16 -2 -99 -7 -183 -11 -84 -3 -155 -11 -158 -16 -4 -6 48
-7 142 -2 82 5 163 8 179 7 17 -1 104 4 195 12 91 7 199 14 240 14 41 0 91 3
110 6 19 3 59 8 88 12 56 6 74 17 42 26 -11 3 -20 2 -20 -2z"/>
<path d="M3090 3076 c0 -2 7 -6 15 -10 8 -3 15 -1 15 4 0 6 -7 10 -15 10 -8 0
-15 -2 -15 -4z"/>
<path d="M5070 3069 c-21 -4 -27 -7 -15 -9 23 -3 48 0 54 6 9 8 -5 10 -39 3z"/>
<path d="M4970 3060 c-9 -6 -10 -10 -3 -10 6 0 15 5 18 10 8 12 4 12 -15 0z"/>
<path d="M4838 3053 c7 -3 16 -2 19 1 4 3 -2 6 -13 5 -11 0 -14 -3 -6 -6z"/>
<path d="M2960 3005 c0 -15 11 -37 28 -52 15 -14 18 -19 7 -12 -16 10 -15 7 4
-14 14 -15 26 -27 27 -27 1 0 19 23 39 50 49 67 43 80 -40 80 -63 0 -65 -1
-65 -25z"/>
<path d="M4048 3025 c-13 -14 3 -35 20 -26 23 12 242 -2 269 -17 43 -23 45
-43 49 -336 4 -312 6 -1564 3 -1611 -3 -36 29 -105 48 -105 11 0 13 172 8
1037 -3 571 -9 1041 -13 1044 -10 9 -375 22 -384 14z"/>
<path d="M3229 2843 c-13 -16 -12 -17 4 -4 9 7 17 15 17 17 0 8 -8 3 -21 -13z"/>
<path d="M2443 2803 c-7 -2 -13 -9 -13 -14 0 -6 7 -6 18 -1 9 5 23 7 31 4 8
-3 11 0 7 7 -7 11 -22 13 -43 4z"/>
<path d="M3460 2757 c14 -7 29 -22 35 -35 12 -28 25 -29 18 -2 -6 23 -40 50
-63 50 -8 0 -4 -6 10 -13z"/>
<path d="M2433 2711 c-3 -14 -27 -33 -62 -51 -31 -16 -50 -29 -44 -30 19 0 64
-42 74 -68 16 -41 34 -19 41 51 3 36 9 75 13 85 3 11 1 23 -5 27 -7 4 -14 -2
-17 -14z"/>
<path d="M3315 2691 c-12 -12 -15 -12 -15 -2 0 11 -3 11 -15 1 -8 -7 -15 -17
-15 -22 0 -7 4 -7 13 0 11 9 66 8 94 -2 6 -3 24 -26 39 -51 25 -43 26 -51 18
-99 l-10 -52 38 25 c27 17 37 30 32 40 -3 9 -6 41 -5 71 2 82 -20 105 -98 105
-41 1 -66 -4 -76 -14z"/>
<path d="M6272 2666 c4 -5 1 -15 -7 -23 -8 -8 -15 -23 -15 -34 0 -20 0 -20 30
1 17 12 30 29 30 37 0 9 -3 13 -7 10 -3 -4 -13 -1 -22 5 -9 7 -13 9 -9 4z"/>
<path d="M3091 2656 c11 -9 69 -15 64 -6 -3 6 -20 10 -37 10 -17 0 -29 -2 -27
-4z"/>
<path d="M2550 2634 c-29 -16 -13 -19 26 -4 21 8 32 7 51 -5 24 -16 24 -16 13
4 -13 24 -52 26 -90 5z"/>
<path d="M6474 2605 c-8 -19 5 -38 21 -31 8 3 19 -2 25 -10 18 -21 32 -17 20
5 -5 11 -20 21 -32 23 -13 2 -22 9 -20 16 3 17 -7 15 -14 -3z"/>
<path d="M3084 2574 c3 -9 6 -20 6 -25 0 -5 12 -3 26 3 24 11 25 13 8 25 -25
18 -48 17 -40 -3z"/>
<path d="M2495 2540 c-38 -10 -62 -19 -52 -19 34 -2 79 -33 92 -64 22 -53 27
-155 12 -239 -12 -73 -12 -80 6 -108 25 -39 33 -38 41 5 9 46 10 421 1 434 -8
14 -13 13 -100 -9z"/>
<path d="M2839 2523 c-13 -16 -12 -17 3 -5 24 19 55 6 67 -26 6 -18 10 -21 10
-9 2 51 -51 77 -80 40z"/>
<path d="M2150 2510 c6 -11 13 -20 16 -20 2 0 0 9 -6 20 -6 11 -13 20 -16 20
-2 0 0 -9 6 -20z"/>
<path d="M2837 2343 c-4 -58 -7 -132 -7 -164 0 -63 -1 -62 73 -75 20 -3 40
-10 43 -15 3 -5 9 -7 13 -4 18 11 66 -57 112 -159 26 -60 59 -121 72 -135 14
-14 37 -48 52 -76 15 -27 47 -75 71 -106 56 -70 68 -110 53 -175 -6 -27 -13
-69 -16 -94 -4 -43 -3 -47 36 -78 37 -30 91 -44 91 -23 0 5 -16 21 -35 35
l-35 27 0 86 c0 74 3 90 21 109 l21 23 -123 177 c-75 109 -129 197 -140 230
-10 29 -35 84 -57 121 -22 37 -43 78 -46 91 -9 26 -23 28 -48 5 -18 -16 -18
-16 -12 2 5 13 4 16 -4 11 -7 -4 -10 -17 -6 -31 10 -40 -11 -36 -57 11 l-44
45 -2 112 c-1 62 -2 122 -3 135 0 12 -4 22 -8 22 -5 0 -12 -48 -15 -107z"/>
<path d="M3333 2368 c-24 -34 -21 -53 9 -69 27 -14 39 4 31 46 -10 52 -17 56
-40 23z"/>
<path d="M5624 2278 l-19 -23 23 19 c21 18 27 26 19 26 -2 0 -12 -10 -23 -22z"/>
<path d="M2997 2252 c-10 -10 -17 -22 -17 -27 0 -5 6 -2 13 7 16 20 50 28 71
16 9 -5 21 -29 27 -53 6 -25 15 -45 19 -45 21 0 99 -150 100 -193 0 -10 11
-22 23 -26 23 -9 65 -57 199 -230 81 -105 90 -130 54 -165 -23 -24 -23 -26 -6
-26 11 0 26 10 35 23 13 21 13 28 0 68 -8 24 -41 78 -73 120 -136 179 -168
218 -182 222 -8 2 -24 28 -34 58 -25 69 -82 159 -101 159 -10 0 -15 11 -15 33
0 48 -24 77 -64 77 -19 0 -40 -8 -49 -18z"/>
<path d="M3471 2236 c7 -14 15 -26 19 -26 17 0 62 -81 57 -101 -5 -20 -4 -21
10 -7 20 21 11 48 -39 106 -48 55 -63 64 -47 28z"/>
<path d="M5578 2222 c-16 -27 -16 -31 4 -73 12 -24 30 -54 41 -66 23 -26 37
-123 18 -123 -7 0 -10 -4 -7 -9 4 -5 0 -12 -6 -14 -7 -3 -8 -6 -3 -6 24 -2 84
74 90 115 l7 40 -71 58 c-39 31 -71 60 -71 63 0 4 7 15 17 25 9 10 12 18 7 18
-5 0 -17 -13 -26 -28z"/>
<path d="M3371 2144 c-21 -38 -22 -47 -10 -55 25 -15 121 -31 130 -22 10 10
-69 122 -86 123 -6 0 -21 -21 -34 -46z"/>
<path d="M2652 2130 c0 -19 2 -27 5 -17 2 9 2 25 0 35 -3 9 -5 1 -5 -18z"/>
<path d="M5285 2110 c3 -5 2 -10 -3 -10 -14 0 -22 -25 -28 -92 -5 -59 -34
-140 -59 -168 -7 -8 -15 -21 -17 -29 -2 -8 -20 -45 -40 -84 -21 -38 -35 -74
-31 -80 3 -5 1 -7 -4 -4 -6 4 -14 -4 -17 -18 -4 -14 -10 -25 -15 -25 -4 0 -27
-42 -51 -92 -24 -51 -49 -100 -56 -108 -7 -8 -44 -78 -84 -155 -39 -76 -77
-146 -84 -155 -15 -17 -46 -75 -47 -87 0 -5 -8 -17 -18 -28 -35 -38 -54 -95
-32 -95 11 0 371 643 371 663 0 2 26 53 58 113 184 344 182 339 182 404 0 48
-3 60 -16 60 -8 0 -12 -4 -9 -10z"/>
<path d="M3698 2053 c25 -5 46 -37 38 -59 -3 -7 11 -37 30 -66 34 -51 37 -69
19 -112 -6 -14 -5 -17 4 -12 29 19 32 56 6 106 -13 27 -29 51 -35 55 -5 3 -10
19 -10 34 0 32 -28 62 -56 60 -15 -1 -15 -3 4 -6z"/>
<path d="M3650 2039 c0 -5 5 -7 10 -4 6 3 10 8 10 11 0 2 -4 4 -10 4 -5 0 -10
-5 -10 -11z"/>
<path d="M5923 1992 c-3 -9 -8 -20 -10 -25 -2 -4 7 -2 21 5 30 13 33 23 11 32
-10 3 -18 -1 -22 -12z"/>
<path d="M3641 1931 c-19 -37 -23 -40 -41 -29 -22 14 -33 8 -25 -14 4 -10 14
-14 25 -11 29 8 70 -42 71 -86 1 -20 2 -66 3 -102 2 -50 7 -73 25 -97 43 -60
49 -44 44 103 -4 95 -9 120 -36 185 -17 41 -34 79 -38 84 -4 4 -17 -10 -28
-33z"/>
<path d="M3530 1936 c0 -2 8 -10 18 -17 15 -13 16 -12 3 4 -13 16 -21 21 -21
13z"/>
<path d="M5881 1883 c-33 -60 -37 -73 -22 -73 5 0 22 -10 38 -23 15 -13 56
-34 91 -46 72 -27 82 -45 57 -106 -15 -38 -12 -36 59 40 54 58 74 87 72 105
-1 19 5 26 25 30 21 4 25 9 19 25 -6 18 -8 18 -33 -7 -15 -15 -27 -34 -27 -42
0 -9 -11 -18 -25 -22 -24 -6 -178 11 -196 21 -5 4 -9 37 -9 75 0 38 -4 71 -9
75 -5 3 -23 -20 -40 -52z"/>
<path d="M2635 1900 c20 -23 29 -21 19 4 -3 9 -13 16 -22 16 -13 0 -12 -3 3
-20z"/>
<path d="M2600 1866 c0 -2 8 -10 18 -17 15 -13 16 -12 3 4 -13 16 -21 21 -21
13z"/>
<path d="M6004 1836 c-18 -13 -15 -15 34 -22 31 -4 52 -12 52 -19 0 -7 7 -15
15 -19 19 -7 20 18 0 34 -8 6 -26 13 -41 15 -14 1 -29 8 -33 14 -5 8 -13 7
-27 -3z"/>
<path d="M4470 1775 c0 -38 3 -65 7 -62 7 8 5 119 -3 126 -2 2 -4 -26 -4 -64z"/>
<path d="M3780 1730 c0 -5 4 -10 9 -10 5 0 6 -34 4 -75 -3 -51 -1 -75 6 -75 6
0 12 17 12 38 1 20 3 53 5 72 2 34 -9 60 -27 60 -5 0 -9 -4 -9 -10z"/>
<path d="M4470 1653 c0 -19 22 -265 39 -437 10 -98 21 -139 21 -75 0 19 -6 90
-14 159 -8 69 -18 178 -21 243 -4 64 -11 120 -16 123 -5 3 -9 -3 -9 -13z"/>
<path d="M3968 1523 c7 -3 16 -2 19 1 4 3 -2 6 -13 5 -11 0 -14 -3 -6 -6z"/>
<path d="M5925 1499 c-11 -17 1 -21 15 -4 8 9 8 15 2 15 -6 0 -14 -5 -17 -11z"/>
<path d="M4176 1488 c3 -4 -2 -18 -10 -30 -9 -12 -16 -18 -16 -13 -1 6 -7 -1
-14 -14 -11 -20 -11 -27 -1 -38 15 -15 55 -18 55 -4 0 5 9 11 20 14 11 3 20
12 20 21 0 9 7 16 15 16 26 0 19 49 -7 55 -31 7 -68 3 -62 -7z m49 -48 c-16
-16 -31 -28 -34 -25 -2 3 8 19 24 35 16 16 31 28 34 25 2 -3 -8 -19 -24 -35z"/>
<path d="M5869 1439 c-47 -56 -47 -56 -20 -34 23 20 66 75 58 75 -2 0 -19 -18
-38 -41z"/>
<path d="M3558 1433 c7 -3 16 -2 19 1 4 3 -2 6 -13 5 -11 0 -14 -3 -6 -6z"/>
<path d="M3454 1400 c0 -11 3 -20 7 -20 11 0 29 27 22 33 -13 14 -29 6 -29
-13z"/>
<path d="M3722 1319 c51 -60 127 -129 141 -129 12 0 -142 158 -167 172 -11 6
1 -13 26 -43z"/>
<path d="M5759 1323 l-34 -38 38 34 c34 33 42 41 34 41 -2 0 -19 -17 -38 -37z"/>
<path d="M3490 1314 c-17 -15 -29 -29 -26 -31 3 -3 19 6 36 20 19 16 37 24 47
20 11 -4 14 -3 9 5 -11 19 -32 14 -66 -14z"/>
<path d="M3389 1296 c8 -9 24 -22 35 -28 19 -10 20 -10 7 6 -8 9 -24 22 -35
28 -19 10 -20 10 -7 -6z"/>
<path d="M3550 1275 c21 -29 213 -239 222 -243 10 -5 51 -72 46 -77 -2 -2 -21
17 -42 43 -21 26 -71 83 -111 127 -40 44 -85 95 -100 113 -15 18 -36 32 -48
32 -27 0 -81 -39 -56 -40 18 0 149 -125 149 -141 0 -5 5 -9 10 -9 6 0 19 -15
30 -33 18 -31 134 -117 157 -117 17 0 24 30 12 52 -10 19 -212 244 -262 293
l-21 20 14 -20z"/>
<path d="M5670 1240 c-9 -6 -10 -10 -3 -10 6 0 15 5 18 10 8 12 4 12 -15 0z"/>
<path d="M3890 1151 c0 -5 4 -11 8 -13 5 -1 26 -27 46 -56 37 -51 60 -132 38
-132 -5 0 -12 -9 -15 -20 -4 -16 -14 -20 -49 -21 l-43 -1 34 -11 c26 -8 39 -8
60 4 37 21 48 97 20 150 -33 65 -99 132 -99 100z"/>
<path d="M4529 1020 c-4 -80 -5 -85 -29 -91 -20 -6 -21 -7 -5 -8 38 -1 55 22
54 75 -1 27 -5 63 -9 79 -5 22 -8 8 -11 -55z"/>
<path d="M5125 1049 c-27 -21 -63 -48 -78 -60 -39 -29 -59 -63 -64 -104 -4
-38 3 -43 33 -20 13 9 32 12 59 8 51 -7 64 -18 57 -45 l-5 -22 35 21 c41 24
188 132 188 138 0 2 -7 2 -15 -1 -8 -4 -15 -11 -15 -16 0 -6 -6 -5 -15 2 -10
9 -15 9 -15 1 0 -6 -5 -11 -11 -11 -5 0 -7 5 -4 10 3 6 1 10 -4 10 -6 0 -11
-4 -11 -10 0 -12 -11 -13 -30 0 -13 8 -13 12 1 37 16 27 15 29 -20 64 l-36 37
-50 -39z m11 -124 c-22 -19 -41 -33 -44 -31 -8 9 33 53 45 49 6 -2 14 1 18 6
3 6 9 11 13 11 4 -1 -11 -16 -32 -35z m84 0 c14 -16 10 -18 -14 -9 -9 3 -16
10 -16 15 0 14 16 11 30 -6z"/>
<path d="M5016 995 c-15 -19 -21 -32 -14 -30 12 5 52 65 44 65 -2 0 -16 -16
-30 -35z"/>
<path d="M3490 961 c0 -6 4 -13 10 -16 6 -3 7 1 4 9 -7 18 -14 21 -14 7z"/>
<path d="M3536 926 c10 -8 21 -12 24 -10 5 6 -21 24 -34 24 -6 0 -1 -6 10 -14z"/>
<path d="M5480 911 c0 -5 7 -12 16 -15 14 -5 15 -4 4 9 -14 17 -20 19 -20 6z"/>
<path d="M3665 848 c90 -57 200 -120 436 -246 42 -22 116 -57 165 -78 49 -20
106 -45 126 -55 21 -11 81 -35 133 -54 71 -25 95 -31 95 -20 0 7 -23 21 -52
31 -29 9 -57 20 -63 24 -5 4 -44 21 -85 38 -117 47 -415 188 -525 249 -55 31
-143 80 -195 109 -136 76 -151 77 -35 2z"/>
<path d="M5422 869 c-23 -17 -40 -34 -37 -39 3 -4 -2 -11 -11 -14 -10 -4 -13
-2 -8 7 5 8 2 8 -9 -2 -9 -7 -14 -17 -12 -22 6 -9 -29 -49 -43 -49 -4 0 -27
-14 -51 -32 -24 -17 -53 -32 -65 -33 -11 -1 -20 -5 -18 -8 1 -4 2 -11 2 -16 0
-5 11 -8 24 -7 13 0 22 5 18 10 -3 5 2 6 12 3 11 -4 26 2 43 18 15 13 31 22
35 19 5 -3 -16 -24 -47 -46 -61 -43 -68 -64 -11 -28 20 12 40 19 46 15 6 -4
10 -3 9 2 -4 25 3 35 21 30 11 -3 20 -1 20 4 0 5 8 12 18 16 25 9 162 112 162
122 0 5 -7 12 -15 15 -9 3 -22 19 -28 36 l-13 30 -42 -31z m33 -59 c3 -5 1
-10 -4 -10 -6 0 -11 5 -11 10 0 6 2 10 4 10 3 0 8 -4 11 -10z"/>
<path d="M4020 803 c0 -9 101 -55 107 -50 3 4 -91 57 -101 57 -3 0 -6 -3 -6
-7z"/>
<path d="M4906 765 c-3 -8 -1 -15 4 -15 6 0 10 7 10 15 0 8 -2 15 -4 15 -2 0
-6 -7 -10 -15z"/>
<path d="M4907 723 c-12 -11 -8 -22 13 -33 14 -7 20 -7 20 0 0 5 -7 10 -16 10
-10 0 -14 6 -10 15 6 16 3 19 -7 8z"/>
<path d="M4480 576 c0 -4 37 -28 113 -73 35 -21 37 -21 37 -3 0 13 -12 22 -37
31 -21 6 -43 15 -48 20 -13 10 -65 30 -65 25z"/>
<path d="M4640 450 c0 -13 11 -13 30 0 12 8 11 10 -7 10 -13 0 -23 -4 -23 -10z"/>
<path d="M4940 426 c-14 -8 -28 -12 -32 -10 -5 3 -8 0 -8 -5 0 -6 2 -11 5 -11
10 0 65 30 65 35 0 7 -1 6 -30 -9z"/>
<path d="M4830 381 c-8 -5 -53 -17 -99 -25 -47 -9 -86 -18 -87 -19 -8 -7 10
-47 20 -47 19 1 212 98 196 99 -8 0 -22 -4 -30 -8z"/>
</g>
</svg>
